<?xml version="1.0" encoding="UTF-8"?>
<?xml-stylesheet href="https://cdnjs.cloudflare.com/ajax/libs/font-awesome/6.7.2/css/all.min.css" type="text/css"?>
<svg aria-roledescription="er" role="graphics-document document" viewBox="0 0 389.3046875 898" style="max-width: 100%;" xmlns="http://www.w3.org/2000/svg" width="100%" id="graph-div" height="100%" xmlns:xlink="http://www.w3.org/1999/xlink"><style>#graph-div{font-family:"trebuchet ms",verdana,arial,sans-serif;font-size:16px;fill:#ccc;}#graph-div .error-icon{fill:#a44141;}#graph-div .error-text{fill:#ddd;stroke:#ddd;}#graph-div .edge-thickness-normal{stroke-width:1px;}#graph-div .edge-thickness-thick{stroke-width:3.5px;}#graph-div .edge-pattern-solid{stroke-dasharray:0;}#graph-div .edge-thickness-invisible{stroke-width:0;fill:none;}#graph-div .edge-pattern-dashed{stroke-dasharray:3;}#graph-div .edge-pattern-dotted{stroke-dasharray:2;}#graph-div .marker{fill:lightgrey;stroke:lightgrey;}#graph-div .marker.cross{stroke:lightgrey;}#graph-div svg{font-family:"trebuchet ms",verdana,arial,sans-serif;font-size:16px;}#graph-div p{margin:0;}#graph-div .entityBox{fill:#1f2020;stroke:#ccc;}#graph-div .attributeBoxOdd{fill:hsl(0, 0%, 32%);stroke:#ccc;}#graph-div .attributeBoxEven{fill:hsl(0, 0%, 22%);stroke:#ccc;}#graph-div .relationshipLabelBox{fill:hsl(20, 1.5873015873%, 12.3529411765%);opacity:0.7;background-color:hsl(20, 1.5873015873%, 12.3529411765%);}#graph-div .relationshipLabelBox rect{opacity:0.5;}#graph-div .relationshipLine{stroke:lightgrey;}#graph-div .entityTitleText{text-anchor:middle;font-size:18px;fill:#ccc;}#graph-div #MD_PARENT_START{fill:#f5f5f5!important;stroke:lightgrey!important;stroke-width:1;}#graph-div #MD_PARENT_END{fill:#f5f5f5!important;stroke:lightgrey!important;stroke-width:1;}#graph-div :root{--mermaid-font-family:"trebuchet ms",verdana,arial,sans-serif;}</style><g></g><defs><marker orient="auto" markerHeight="240" markerWidth="190" refY="7" refX="0" id="MD_PARENT_START"><path d="M 18,7 L9,13 L1,7 L9,1 Z"></path></marker></defs><defs><marker orient="auto" markerHeight="28" markerWidth="20" refY="7" refX="19" id="MD_PARENT_END"><path d="M 18,7 L9,13 L1,7 L9,1 Z"></path></marker></defs><defs><marker orient="auto" markerHeight="18" markerWidth="18" refY="9" refX="0" id="ONLY_ONE_START"><path d="M9,0 L9,18 M15,0 L15,18" fill="none" stroke="gray"></path></marker></defs><defs><marker orient="auto" markerHeight="18" markerWidth="18" refY="9" refX="18" id="ONLY_ONE_END"><path d="M3,0 L3,18 M9,0 L9,18" fill="none" stroke="gray"></path></marker></defs><defs><marker orient="auto" markerHeight="18" markerWidth="30" refY="9" refX="0" id="ZERO_OR_ONE_START"><circle r="6" cy="9" cx="21" fill="white" stroke="gray"></circle><path d="M9,0 L9,18" fill="none" stroke="gray"></path></marker></defs><defs><marker orient="auto" markerHeight="18" markerWidth="30" refY="9" refX="30" id="ZERO_OR_ONE_END"><circle r="6" cy="9" cx="9" fill="white" stroke="gray"></circle><path d="M21,0 L21,18" fill="none" stroke="gray"></path></marker></defs><defs><marker orient="auto" markerHeight="36" markerWidth="45" refY="18" refX="18" id="ONE_OR_MORE_START"><path d="M0,18 Q 18,0 36,18 Q 18,36 0,18 M42,9 L42,27" fill="none" stroke="gray"></path></marker></defs><defs><marker orient="auto" markerHeight="36" markerWidth="45" refY="18" refX="27" id="ONE_OR_MORE_END"><path d="M3,9 L3,27 M9,18 Q27,0 45,18 Q27,36 9,18" fill="none" stroke="gray"></path></marker></defs><defs><marker orient="auto" markerHeight="36" markerWidth="57" refY="18" refX="18" id="ZERO_OR_MORE_START"><circle r="6" cy="18" cx="48" fill="white" stroke="gray"></circle><path d="M0,18 Q18,0 36,18 Q18,36 0,18" fill="none" stroke="gray"></path></marker></defs><defs><marker orient="auto" markerHeight="36" markerWidth="57" refY="18" refX="39" id="ZERO_OR_MORE_END"><circle r="6" cy="18" cx="9" fill="white" stroke="gray"></circle><path d="M21,18 Q39,0 57,18 Q39,36 21,18" fill="none" stroke="gray"></path></marker></defs><path style="stroke: gray; fill: none;" marker-start="url(#ONLY_ONE_START)" marker-end="url(#ZERO_OR_MORE_END)" d="M76.48,176L76.48,184.333C76.48,192.667,76.48,209.333,84.481,226C92.481,242.667,108.482,259.333,116.483,267.667L124.483,276" class="er relationshipLine"></path><path style="stroke: gray; fill: none;" marker-start="url(#ONLY_ONE_START)" marker-end="url(#ZERO_OR_MORE_END)" d="M188.807,410L188.807,418.333C188.807,426.667,188.807,443.333,188.807,460C188.807,476.667,188.807,493.333,188.807,501.667L188.807,510" class="er relationshipLine"></path><path style="stroke: gray; fill: none;" marker-start="url(#ZERO_OR_MORE_START)" marker-end="url(#ONLY_ONE_END)" d="M188.807,622L188.807,630.333C188.807,638.667,188.807,655.333,188.807,672C188.807,688.667,188.807,705.333,188.807,713.667L188.807,722" class="er relationshipLine"></path><path style="stroke: gray; fill: none;" marker-start="url(#ONLY_ONE_START)" marker-end="url(#ZERO_OR_MORE_END)" d="M301.133,165L301.133,175.167C301.133,185.333,301.133,205.667,293.132,224.167C285.132,242.667,269.131,259.333,261.131,267.667L253.13,276" class="er relationshipLine"></path><g transform="translate(20,20 )" id="entity-CLIENTE-8b97428f-cd26-5bb8-b585-f77366c59df3"><rect height="156" width="112.9609375" y="0" x="0" class="er entityBox"></rect><text style="dominant-baseline: middle; text-anchor: middle; font-size: 12px;" transform="translate(56.48046875,12)" y="0" x="0" id="text-entity-CLIENTE-8b97428f-cd26-5bb8-b585-f77366c59df3" class="er entityLabel">CLIENTE</text><rect height="22" width="35.7421875" y="24" x="0" class="er attributeBoxOdd"></rect><text style="dominant-baseline: middle; font-size: 10.2px;" transform="translate(5,35)" y="0" x="0" id="text-entity-CLIENTE-8b97428f-cd26-5bb8-b585-f77366c59df3-attr-1-type" class="er entityLabel">int</text><rect height="22" width="55.65625" y="24" x="35.7421875" class="er attributeBoxOdd"></rect><text style="dominant-baseline: middle; font-size: 10.2px;" transform="translate(40.7421875,35)" y="0" x="0" id="text-entity-CLIENTE-8b97428f-cd26-5bb8-b585-f77366c59df3-attr-1-name" class="er entityLabel">id_cliente</text><rect height="22" width="21.5625" y="24" x="91.3984375" class="er attributeBoxOdd"></rect><text style="dominant-baseline: middle; font-size: 10.2px;" transform="translate(96.3984375,35)" y="0" x="0" id="text-entity-CLIENTE-8b97428f-cd26-5bb8-b585-f77366c59df3-attr-1-key" class="er entityLabel">PK</text><rect height="22" width="35.7421875" y="46" x="0" class="er attributeBoxEven"></rect><text style="dominant-baseline: middle; font-size: 10.2px;" transform="translate(5,57)" y="0" x="0" id="text-entity-CLIENTE-8b97428f-cd26-5bb8-b585-f77366c59df3-attr-2-type" class="er entityLabel">string</text><rect height="22" width="55.65625" y="46" x="35.7421875" class="er attributeBoxEven"></rect><text style="dominant-baseline: middle; font-size: 10.2px;" transform="translate(40.7421875,57)" y="0" x="0" id="text-entity-CLIENTE-8b97428f-cd26-5bb8-b585-f77366c59df3-attr-2-name" class="er entityLabel">nombre</text><rect height="22" width="21.5625" y="46" x="91.3984375" class="er attributeBoxEven"></rect><text style="dominant-baseline: middle; font-size: 10.2px;" transform="translate(96.3984375,57)" y="0" x="0" id="text-entity-CLIENTE-8b97428f-cd26-5bb8-b585-f77366c59df3-attr-2-key" class="er entityLabel"></text><rect height="22" width="35.7421875" y="68" x="0" class="er attributeBoxOdd"></rect><text style="dominant-baseline: middle; font-size: 10.2px;" transform="translate(5,79)" y="0" x="0" id="text-entity-CLIENTE-8b97428f-cd26-5bb8-b585-f77366c59df3-attr-3-type" class="er entityLabel">string</text><rect height="22" width="55.65625" y="68" x="35.7421875" class="er attributeBoxOdd"></rect><text style="dominant-baseline: middle; font-size: 10.2px;" transform="translate(40.7421875,79)" y="0" x="0" id="text-entity-CLIENTE-8b97428f-cd26-5bb8-b585-f77366c59df3-attr-3-name" class="er entityLabel">apellido</text><rect height="22" width="21.5625" y="68" x="91.3984375" class="er attributeBoxOdd"></rect><text style="dominant-baseline: middle; font-size: 10.2px;" transform="translate(96.3984375,79)" y="0" x="0" id="text-entity-CLIENTE-8b97428f-cd26-5bb8-b585-f77366c59df3-attr-3-key" class="er entityLabel"></text><rect height="22" width="35.7421875" y="90" x="0" class="er attributeBoxEven"></rect><text style="dominant-baseline: middle; font-size: 10.2px;" transform="translate(5,101)" y="0" x="0" id="text-entity-CLIENTE-8b97428f-cd26-5bb8-b585-f77366c59df3-attr-4-type" class="er entityLabel">string</text><rect height="22" width="55.65625" y="90" x="35.7421875" class="er attributeBoxEven"></rect><text style="dominant-baseline: middle; font-size: 10.2px;" transform="translate(40.7421875,101)" y="0" x="0" id="text-entity-CLIENTE-8b97428f-cd26-5bb8-b585-f77366c59df3-attr-4-name" class="er entityLabel">telefono</text><rect height="22" width="21.5625" y="90" x="91.3984375" class="er attributeBoxEven"></rect><text style="dominant-baseline: middle; font-size: 10.2px;" transform="translate(96.3984375,101)" y="0" x="0" id="text-entity-CLIENTE-8b97428f-cd26-5bb8-b585-f77366c59df3-attr-4-key" class="er entityLabel"></text><rect height="22" width="35.7421875" y="112" x="0" class="er attributeBoxOdd"></rect><text style="dominant-baseline: middle; font-size: 10.2px;" transform="translate(5,123)" y="0" x="0" id="text-entity-CLIENTE-8b97428f-cd26-5bb8-b585-f77366c59df3-attr-5-type" class="er entityLabel">string</text><rect height="22" width="55.65625" y="112" x="35.7421875" class="er attributeBoxOdd"></rect><text style="dominant-baseline: middle; font-size: 10.2px;" transform="translate(40.7421875,123)" y="0" x="0" id="text-entity-CLIENTE-8b97428f-cd26-5bb8-b585-f77366c59df3-attr-5-name" class="er entityLabel">email</text><rect height="22" width="21.5625" y="112" x="91.3984375" class="er attributeBoxOdd"></rect><text style="dominant-baseline: middle; font-size: 10.2px;" transform="translate(96.3984375,123)" y="0" x="0" id="text-entity-CLIENTE-8b97428f-cd26-5bb8-b585-f77366c59df3-attr-5-key" class="er entityLabel"></text><rect height="22" width="35.7421875" y="134" x="0" class="er attributeBoxEven"></rect><text style="dominant-baseline: middle; font-size: 10.2px;" transform="translate(5,145)" y="0" x="0" id="text-entity-CLIENTE-8b97428f-cd26-5bb8-b585-f77366c59df3-attr-6-type" class="er entityLabel">string</text><rect height="22" width="55.65625" y="134" x="35.7421875" class="er attributeBoxEven"></rect><text style="dominant-baseline: middle; font-size: 10.2px;" transform="translate(40.7421875,145)" y="0" x="0" id="text-entity-CLIENTE-8b97428f-cd26-5bb8-b585-f77366c59df3-attr-6-name" class="er entityLabel">direccion</text><rect height="22" width="21.5625" y="134" x="91.3984375" class="er attributeBoxEven"></rect><text style="dominant-baseline: middle; font-size: 10.2px;" transform="translate(96.3984375,145)" y="0" x="0" id="text-entity-CLIENTE-8b97428f-cd26-5bb8-b585-f77366c59df3-attr-6-key" class="er entityLabel"></text></g><g transform="translate(117.712890625,276 )" id="entity-ALQUILER-3f347b9a-9d3b-548c-89ec-e4446f5454f3"><rect height="134" width="142.1875" y="0" x="0" class="er entityBox"></rect><text style="dominant-baseline: middle; text-anchor: middle; font-size: 12px;" transform="translate(71.09375,12)" y="0" x="0" id="text-entity-ALQUILER-3f347b9a-9d3b-548c-89ec-e4446f5454f3" class="er entityLabel">ALQUILER</text><rect height="22" width="30.65625" y="24" x="0" class="er attributeBoxOdd"></rect><text style="dominant-baseline: middle; font-size: 10.2px;" transform="translate(5,35)" y="0" x="0" id="text-entity-ALQUILER-3f347b9a-9d3b-548c-89ec-e4446f5454f3-attr-1-type" class="er entityLabel">int</text><rect height="22" width="89.96875" y="24" x="30.65625" class="er attributeBoxOdd"></rect><text style="dominant-baseline: middle; font-size: 10.2px;" transform="translate(35.65625,35)" y="0" x="0" id="text-entity-ALQUILER-3f347b9a-9d3b-548c-89ec-e4446f5454f3-attr-1-name" class="er entityLabel">id_alquiler</text><rect height="22" width="21.5625" y="24" x="120.625" class="er attributeBoxOdd"></rect><text style="dominant-baseline: middle; font-size: 10.2px;" transform="translate(125.625,35)" y="0" x="0" id="text-entity-ALQUILER-3f347b9a-9d3b-548c-89ec-e4446f5454f3-attr-1-key" class="er entityLabel">PK</text><rect height="22" width="30.65625" y="46" x="0" class="er attributeBoxEven"></rect><text style="dominant-baseline: middle; font-size: 10.2px;" transform="translate(5,57)" y="0" x="0" id="text-entity-ALQUILER-3f347b9a-9d3b-548c-89ec-e4446f5454f3-attr-2-type" class="er entityLabel">date</text><rect height="22" width="89.96875" y="46" x="30.65625" class="er attributeBoxEven"></rect><text style="dominant-baseline: middle; font-size: 10.2px;" transform="translate(35.65625,57)" y="0" x="0" id="text-entity-ALQUILER-3f347b9a-9d3b-548c-89ec-e4446f5454f3-attr-2-name" class="er entityLabel">fecha_alquiler</text><rect height="22" width="21.5625" y="46" x="120.625" class="er attributeBoxEven"></rect><text style="dominant-baseline: middle; font-size: 10.2px;" transform="translate(125.625,57)" y="0" x="0" id="text-entity-ALQUILER-3f347b9a-9d3b-548c-89ec-e4446f5454f3-attr-2-key" class="er entityLabel"></text><rect height="22" width="30.65625" y="68" x="0" class="er attributeBoxOdd"></rect><text style="dominant-baseline: middle; font-size: 10.2px;" transform="translate(5,79)" y="0" x="0" id="text-entity-ALQUILER-3f347b9a-9d3b-548c-89ec-e4446f5454f3-attr-3-type" class="er entityLabel">date</text><rect height="22" width="89.96875" y="68" x="30.65625" class="er attributeBoxOdd"></rect><text style="dominant-baseline: middle; font-size: 10.2px;" transform="translate(35.65625,79)" y="0" x="0" id="text-entity-ALQUILER-3f347b9a-9d3b-548c-89ec-e4446f5454f3-attr-3-name" class="er entityLabel">fecha_devolucion</text><rect height="22" width="21.5625" y="68" x="120.625" class="er attributeBoxOdd"></rect><text style="dominant-baseline: middle; font-size: 10.2px;" transform="translate(125.625,79)" y="0" x="0" id="text-entity-ALQUILER-3f347b9a-9d3b-548c-89ec-e4446f5454f3-attr-3-key" class="er entityLabel"></text><rect height="22" width="30.65625" y="90" x="0" class="er attributeBoxEven"></rect><text style="dominant-baseline: middle; font-size: 10.2px;" transform="translate(5,101)" y="0" x="0" id="text-entity-ALQUILER-3f347b9a-9d3b-548c-89ec-e4446f5454f3-attr-4-type" class="er entityLabel">int</text><rect height="22" width="89.96875" y="90" x="30.65625" class="er attributeBoxEven"></rect><text style="dominant-baseline: middle; font-size: 10.2px;" transform="translate(35.65625,101)" y="0" x="0" id="text-entity-ALQUILER-3f347b9a-9d3b-548c-89ec-e4446f5454f3-attr-4-name" class="er entityLabel">id_cliente</text><rect height="22" width="21.5625" y="90" x="120.625" class="er attributeBoxEven"></rect><text style="dominant-baseline: middle; font-size: 10.2px;" transform="translate(125.625,101)" y="0" x="0" id="text-entity-ALQUILER-3f347b9a-9d3b-548c-89ec-e4446f5454f3-attr-4-key" class="er entityLabel">FK</text><rect height="22" width="30.65625" y="112" x="0" class="er attributeBoxOdd"></rect><text style="dominant-baseline: middle; font-size: 10.2px;" transform="translate(5,123)" y="0" x="0" id="text-entity-ALQUILER-3f347b9a-9d3b-548c-89ec-e4446f5454f3-attr-5-type" class="er entityLabel">int</text><rect height="22" width="89.96875" y="112" x="30.65625" class="er attributeBoxOdd"></rect><text style="dominant-baseline: middle; font-size: 10.2px;" transform="translate(35.65625,123)" y="0" x="0" id="text-entity-ALQUILER-3f347b9a-9d3b-548c-89ec-e4446f5454f3-attr-5-name" class="er entityLabel">id_empleado</text><rect height="22" width="21.5625" y="112" x="120.625" class="er attributeBoxOdd"></rect><text style="dominant-baseline: middle; font-size: 10.2px;" transform="translate(125.625,123)" y="0" x="0" id="text-entity-ALQUILER-3f347b9a-9d3b-548c-89ec-e4446f5454f3-attr-5-key" class="er entityLabel">FK</text></g><g transform="translate(122.099609375,510 )" id="entity-DETALLEALQUILER-e98e8734-1a6a-574c-a274-cf3fb57690b0"><rect height="112" width="133.4140625" y="0" x="0" class="er entityBox"></rect><text style="dominant-baseline: middle; text-anchor: middle; font-size: 12px;" transform="translate(66.70703125,12)" y="0" x="0" id="text-entity-DETALLEALQUILER-e98e8734-1a6a-574c-a274-cf3fb57690b0" class="er entityLabel">DETALLE_ALQUILER</text><rect height="22" width="47.9453125" y="24" x="0" class="er attributeBoxOdd"></rect><text style="dominant-baseline: middle; font-size: 10.2px;" transform="translate(5,35)" y="0" x="0" id="text-entity-DETALLEALQUILER-e98e8734-1a6a-574c-a274-cf3fb57690b0-attr-1-type" class="er entityLabel">int</text><rect height="22" width="62" y="24" x="47.9453125" class="er attributeBoxOdd"></rect><text style="dominant-baseline: middle; font-size: 10.2px;" transform="translate(52.9453125,35)" y="0" x="0" id="text-entity-DETALLEALQUILER-e98e8734-1a6a-574c-a274-cf3fb57690b0-attr-1-name" class="er entityLabel">id_detalle</text><rect height="22" width="23.46875" y="24" x="109.9453125" class="er attributeBoxOdd"></rect><text style="dominant-baseline: middle; font-size: 10.2px;" transform="translate(114.9453125,35)" y="0" x="0" id="text-entity-DETALLEALQUILER-e98e8734-1a6a-574c-a274-cf3fb57690b0-attr-1-key" class="er entityLabel">PK</text><rect height="22" width="47.9453125" y="46" x="0" class="er attributeBoxEven"></rect><text style="dominant-baseline: middle; font-size: 10.2px;" transform="translate(5,57)" y="0" x="0" id="text-entity-DETALLEALQUILER-e98e8734-1a6a-574c-a274-cf3fb57690b0-attr-2-type" class="er entityLabel">int</text><rect height="22" width="62" y="46" x="47.9453125" class="er attributeBoxEven"></rect><text style="dominant-baseline: middle; font-size: 10.2px;" transform="translate(52.9453125,57)" y="0" x="0" id="text-entity-DETALLEALQUILER-e98e8734-1a6a-574c-a274-cf3fb57690b0-attr-2-name" class="er entityLabel">id_alquiler</text><rect height="22" width="23.46875" y="46" x="109.9453125" class="er attributeBoxEven"></rect><text style="dominant-baseline: middle; font-size: 10.2px;" transform="translate(114.9453125,57)" y="0" x="0" id="text-entity-DETALLEALQUILER-e98e8734-1a6a-574c-a274-cf3fb57690b0-attr-2-key" class="er entityLabel">FK</text><rect height="22" width="47.9453125" y="68" x="0" class="er attributeBoxOdd"></rect><text style="dominant-baseline: middle; font-size: 10.2px;" transform="translate(5,79)" y="0" x="0" id="text-entity-DETALLEALQUILER-e98e8734-1a6a-574c-a274-cf3fb57690b0-attr-3-type" class="er entityLabel">int</text><rect height="22" width="62" y="68" x="47.9453125" class="er attributeBoxOdd"></rect><text style="dominant-baseline: middle; font-size: 10.2px;" transform="translate(52.9453125,79)" y="0" x="0" id="text-entity-DETALLEALQUILER-e98e8734-1a6a-574c-a274-cf3fb57690b0-attr-3-name" class="er entityLabel">id_pelicula</text><rect height="22" width="23.46875" y="68" x="109.9453125" class="er attributeBoxOdd"></rect><text style="dominant-baseline: middle; font-size: 10.2px;" transform="translate(114.9453125,79)" y="0" x="0" id="text-entity-DETALLEALQUILER-e98e8734-1a6a-574c-a274-cf3fb57690b0-attr-3-key" class="er entityLabel">FK</text><rect height="22" width="47.9453125" y="90" x="0" class="er attributeBoxEven"></rect><text style="dominant-baseline: middle; font-size: 10.2px;" transform="translate(5,101)" y="0" x="0" id="text-entity-DETALLEALQUILER-e98e8734-1a6a-574c-a274-cf3fb57690b0-attr-4-type" class="er entityLabel">decimal</text><rect height="22" width="62" y="90" x="47.9453125" class="er attributeBoxEven"></rect><text style="dominant-baseline: middle; font-size: 10.2px;" transform="translate(52.9453125,101)" y="0" x="0" id="text-entity-DETALLEALQUILER-e98e8734-1a6a-574c-a274-cf3fb57690b0-attr-4-name" class="er entityLabel">precio</text><rect height="22" width="23.46875" y="90" x="109.9453125" class="er attributeBoxEven"></rect><text style="dominant-baseline: middle; font-size: 10.2px;" transform="translate(114.9453125,101)" y="0" x="0" id="text-entity-DETALLEALQUILER-e98e8734-1a6a-574c-a274-cf3fb57690b0-attr-4-key" class="er entityLabel"></text></g><g transform="translate(121.677734375,722 )" id="entity-PELICULA-80785ac6-a52f-5114-8e4d-925ecf4ad892"><rect height="156" width="134.2578125" y="0" x="0" class="er entityBox"></rect><text style="dominant-baseline: middle; text-anchor: middle; font-size: 12px;" transform="translate(67.12890625,12)" y="0" x="0" id="text-entity-PELICULA-80785ac6-a52f-5114-8e4d-925ecf4ad892" class="er entityLabel">PELICULA</text><rect height="22" width="46.140625" y="24" x="0" class="er attributeBoxOdd"></rect><text style="dominant-baseline: middle; font-size: 10.2px;" transform="translate(5,35)" y="0" x="0" id="text-entity-PELICULA-80785ac6-a52f-5114-8e4d-925ecf4ad892-attr-1-type" class="er entityLabel">int</text><rect height="22" width="66.5546875" y="24" x="46.140625" class="er attributeBoxOdd"></rect><text style="dominant-baseline: middle; font-size: 10.2px;" transform="translate(51.140625,35)" y="0" x="0" id="text-entity-PELICULA-80785ac6-a52f-5114-8e4d-925ecf4ad892-attr-1-name" class="er entityLabel">id_pelicula</text><rect height="22" width="21.5625" y="24" x="112.6953125" class="er attributeBoxOdd"></rect><text style="dominant-baseline: middle; font-size: 10.2px;" transform="translate(117.6953125,35)" y="0" x="0" id="text-entity-PELICULA-80785ac6-a52f-5114-8e4d-925ecf4ad892-attr-1-key" class="er entityLabel">PK</text><rect height="22" width="46.140625" y="46" x="0" class="er attributeBoxEven"></rect><text style="dominant-baseline: middle; font-size: 10.2px;" transform="translate(5,57)" y="0" x="0" id="text-entity-PELICULA-80785ac6-a52f-5114-8e4d-925ecf4ad892-attr-2-type" class="er entityLabel">string</text><rect height="22" width="66.5546875" y="46" x="46.140625" class="er attributeBoxEven"></rect><text style="dominant-baseline: middle; font-size: 10.2px;" transform="translate(51.140625,57)" y="0" x="0" id="text-entity-PELICULA-80785ac6-a52f-5114-8e4d-925ecf4ad892-attr-2-name" class="er entityLabel">titulo</text><rect height="22" width="21.5625" y="46" x="112.6953125" class="er attributeBoxEven"></rect><text style="dominant-baseline: middle; font-size: 10.2px;" transform="translate(117.6953125,57)" y="0" x="0" id="text-entity-PELICULA-80785ac6-a52f-5114-8e4d-925ecf4ad892-attr-2-key" class="er entityLabel"></text><rect height="22" width="46.140625" y="68" x="0" class="er attributeBoxOdd"></rect><text style="dominant-baseline: middle; font-size: 10.2px;" transform="translate(5,79)" y="0" x="0" id="text-entity-PELICULA-80785ac6-a52f-5114-8e4d-925ecf4ad892-attr-3-type" class="er entityLabel">string</text><rect height="22" width="66.5546875" y="68" x="46.140625" class="er attributeBoxOdd"></rect><text style="dominant-baseline: middle; font-size: 10.2px;" transform="translate(51.140625,79)" y="0" x="0" id="text-entity-PELICULA-80785ac6-a52f-5114-8e4d-925ecf4ad892-attr-3-name" class="er entityLabel">genero</text><rect height="22" width="21.5625" y="68" x="112.6953125" class="er attributeBoxOdd"></rect><text style="dominant-baseline: middle; font-size: 10.2px;" transform="translate(117.6953125,79)" y="0" x="0" id="text-entity-PELICULA-80785ac6-a52f-5114-8e4d-925ecf4ad892-attr-3-key" class="er entityLabel"></text><rect height="22" width="46.140625" y="90" x="0" class="er attributeBoxEven"></rect><text style="dominant-baseline: middle; font-size: 10.2px;" transform="translate(5,101)" y="0" x="0" id="text-entity-PELICULA-80785ac6-a52f-5114-8e4d-925ecf4ad892-attr-4-type" class="er entityLabel">int</text><rect height="22" width="66.5546875" y="90" x="46.140625" class="er attributeBoxEven"></rect><text style="dominant-baseline: middle; font-size: 10.2px;" transform="translate(51.140625,101)" y="0" x="0" id="text-entity-PELICULA-80785ac6-a52f-5114-8e4d-925ecf4ad892-attr-4-name" class="er entityLabel">duracion</text><rect height="22" width="21.5625" y="90" x="112.6953125" class="er attributeBoxEven"></rect><text style="dominant-baseline: middle; font-size: 10.2px;" transform="translate(117.6953125,101)" y="0" x="0" id="text-entity-PELICULA-80785ac6-a52f-5114-8e4d-925ecf4ad892-attr-4-key" class="er entityLabel"></text><rect height="22" width="46.140625" y="112" x="0" class="er attributeBoxOdd"></rect><text style="dominant-baseline: middle; font-size: 10.2px;" transform="translate(5,123)" y="0" x="0" id="text-entity-PELICULA-80785ac6-a52f-5114-8e4d-925ecf4ad892-attr-5-type" class="er entityLabel">string</text><rect height="22" width="66.5546875" y="112" x="46.140625" class="er attributeBoxOdd"></rect><text style="dominant-baseline: middle; font-size: 10.2px;" transform="translate(51.140625,123)" y="0" x="0" id="text-entity-PELICULA-80785ac6-a52f-5114-8e4d-925ecf4ad892-attr-5-name" class="er entityLabel">clasificacion</text><rect height="22" width="21.5625" y="112" x="112.6953125" class="er attributeBoxOdd"></rect><text style="dominant-baseline: middle; font-size: 10.2px;" transform="translate(117.6953125,123)" y="0" x="0" id="text-entity-PELICULA-80785ac6-a52f-5114-8e4d-925ecf4ad892-attr-5-key" class="er entityLabel"></text><rect height="22" width="46.140625" y="134" x="0" class="er attributeBoxEven"></rect><text style="dominant-baseline: middle; font-size: 10.2px;" transform="translate(5,145)" y="0" x="0" id="text-entity-PELICULA-80785ac6-a52f-5114-8e4d-925ecf4ad892-attr-6-type" class="er entityLabel">boolean</text><rect height="22" width="66.5546875" y="134" x="46.140625" class="er attributeBoxEven"></rect><text style="dominant-baseline: middle; font-size: 10.2px;" transform="translate(51.140625,145)" y="0" x="0" id="text-entity-PELICULA-80785ac6-a52f-5114-8e4d-925ecf4ad892-attr-6-name" class="er entityLabel">disponible</text><rect height="22" width="21.5625" y="134" x="112.6953125" class="er attributeBoxEven"></rect><text style="dominant-baseline: middle; font-size: 10.2px;" transform="translate(117.6953125,145)" y="0" x="0" id="text-entity-PELICULA-80785ac6-a52f-5114-8e4d-925ecf4ad892-attr-6-key" class="er entityLabel"></text></g><g transform="translate(232.9609375,31 )" id="entity-EMPLEADO-fd4ae856-dc83-53aa-b0c1-e07a7b4a9431"><rect height="134" width="136.34375" y="0" x="0" class="er entityBox"></rect><text style="dominant-baseline: middle; text-anchor: middle; font-size: 12px;" transform="translate(68.171875,12)" y="0" x="0" id="text-entity-EMPLEADO-fd4ae856-dc83-53aa-b0c1-e07a7b4a9431" class="er entityLabel">EMPLEADO</text><rect height="22" width="46.0390625" y="24" x="0" class="er attributeBoxOdd"></rect><text style="dominant-baseline: middle; font-size: 10.2px;" transform="translate(5,35)" y="0" x="0" id="text-entity-EMPLEADO-fd4ae856-dc83-53aa-b0c1-e07a7b4a9431-attr-1-type" class="er entityLabel">int</text><rect height="22" width="68.7421875" y="24" x="46.0390625" class="er attributeBoxOdd"></rect><text style="dominant-baseline: middle; font-size: 10.2px;" transform="translate(51.0390625,35)" y="0" x="0" id="text-entity-EMPLEADO-fd4ae856-dc83-53aa-b0c1-e07a7b4a9431-attr-1-name" class="er entityLabel">id_empleado</text><rect height="22" width="21.5625" y="24" x="114.78125" class="er attributeBoxOdd"></rect><text style="dominant-baseline: middle; font-size: 10.2px;" transform="translate(119.78125,35)" y="0" x="0" id="text-entity-EMPLEADO-fd4ae856-dc83-53aa-b0c1-e07a7b4a9431-attr-1-key" class="er entityLabel">PK</text><rect height="22" width="46.0390625" y="46" x="0" class="er attributeBoxEven"></rect><text style="dominant-baseline: middle; font-size: 10.2px;" transform="translate(5,57)" y="0" x="0" id="text-entity-EMPLEADO-fd4ae856-dc83-53aa-b0c1-e07a7b4a9431-attr-2-type" class="er entityLabel">string</text><rect height="22" width="68.7421875" y="46" x="46.0390625" class="er attributeBoxEven"></rect><text style="dominant-baseline: middle; font-size: 10.2px;" transform="translate(51.0390625,57)" y="0" x="0" id="text-entity-EMPLEADO-fd4ae856-dc83-53aa-b0c1-e07a7b4a9431-attr-2-name" class="er entityLabel">nombre</text><rect height="22" width="21.5625" y="46" x="114.78125" class="er attributeBoxEven"></rect><text style="dominant-baseline: middle; font-size: 10.2px;" transform="translate(119.78125,57)" y="0" x="0" id="text-entity-EMPLEADO-fd4ae856-dc83-53aa-b0c1-e07a7b4a9431-attr-2-key" class="er entityLabel"></text><rect height="22" width="46.0390625" y="68" x="0" class="er attributeBoxOdd"></rect><text style="dominant-baseline: middle; font-size: 10.2px;" transform="translate(5,79)" y="0" x="0" id="text-entity-EMPLEADO-fd4ae856-dc83-53aa-b0c1-e07a7b4a9431-attr-3-type" class="er entityLabel">string</text><rect height="22" width="68.7421875" y="68" x="46.0390625" class="er attributeBoxOdd"></rect><text style="dominant-baseline: middle; font-size: 10.2px;" transform="translate(51.0390625,79)" y="0" x="0" id="text-entity-EMPLEADO-fd4ae856-dc83-53aa-b0c1-e07a7b4a9431-attr-3-name" class="er entityLabel">apellido</text><rect height="22" width="21.5625" y="68" x="114.78125" class="er attributeBoxOdd"></rect><text style="dominant-baseline: middle; font-size: 10.2px;" transform="translate(119.78125,79)" y="0" x="0" id="text-entity-EMPLEADO-fd4ae856-dc83-53aa-b0c1-e07a7b4a9431-attr-3-key" class="er entityLabel"></text><rect height="22" width="46.0390625" y="90" x="0" class="er attributeBoxEven"></rect><text style="dominant-baseline: middle; font-size: 10.2px;" transform="translate(5,101)" y="0" x="0" id="text-entity-EMPLEADO-fd4ae856-dc83-53aa-b0c1-e07a7b4a9431-attr-4-type" class="er entityLabel">string</text><rect height="22" width="68.7421875" y="90" x="46.0390625" class="er attributeBoxEven"></rect><text style="dominant-baseline: middle; font-size: 10.2px;" transform="translate(51.0390625,101)" y="0" x="0" id="text-entity-EMPLEADO-fd4ae856-dc83-53aa-b0c1-e07a7b4a9431-attr-4-name" class="er entityLabel">cargo</text><rect height="22" width="21.5625" y="90" x="114.78125" class="er attributeBoxEven"></rect><text style="dominant-baseline: middle; font-size: 10.2px;" transform="translate(119.78125,101)" y="0" x="0" id="text-entity-EMPLEADO-fd4ae856-dc83-53aa-b0c1-e07a7b4a9431-attr-4-key" class="er entityLabel"></text><rect height="22" width="46.0390625" y="112" x="0" class="er attributeBoxOdd"></rect><text style="dominant-baseline: middle; font-size: 10.2px;" transform="translate(5,123)" y="0" x="0" id="text-entity-EMPLEADO-fd4ae856-dc83-53aa-b0c1-e07a7b4a9431-attr-5-type" class="er entityLabel">decimal</text><rect height="22" width="68.7421875" y="112" x="46.0390625" class="er attributeBoxOdd"></rect><text style="dominant-baseline: middle; font-size: 10.2px;" transform="translate(51.0390625,123)" y="0" x="0" id="text-entity-EMPLEADO-fd4ae856-dc83-53aa-b0c1-e07a7b4a9431-attr-5-name" class="er entityLabel">salario</text><rect height="22" width="21.5625" y="112" x="114.78125" class="er attributeBoxOdd"></rect><text style="dominant-baseline: middle; font-size: 10.2px;" transform="translate(119.78125,123)" y="0" x="0" id="text-entity-EMPLEADO-fd4ae856-dc83-53aa-b0c1-e07a7b4a9431-attr-5-key" class="er entityLabel"></text></g><rect height="14" width="36.4765625" y="224.80372619628906" x="69.33456420898438" class="er relationshipLabelBox"></rect><text style="text-anchor: middle; dominant-baseline: middle; font-size: 12px;" y="231.80372619628906" x="87.57284545898438" id="rel7" class="er relationshipLabel">realiza</text><rect height="14" width="46.765625" y="453" x="165.4241943359375" class="er relationshipLabelBox"></rect><text style="text-anchor: middle; dominant-baseline: middle; font-size: 12px;" y="460" x="188.8070068359375" id="rel8" class="er relationshipLabel">contiene</text><rect height="14" width="38.484375" y="665" x="169.5648193359375" class="er relationshipLabelBox"></rect><text style="text-anchor: middle; dominant-baseline: middle; font-size: 12px;" y="672" x="188.8070068359375" id="rel9" class="er relationshipLabel">incluye</text><rect height="14" width="44.90625" y="219.74508666992188" x="269.5078125" class="er relationshipLabelBox"></rect><text style="text-anchor: middle; dominant-baseline: middle; font-size: 12px;" y="226.74508666992188" x="291.9609375" id="rel10" class="er relationshipLabel">gestiona</text></svg>